<svg version="1.0" id="katman_1" xmlns="http://www.w3.org/2000/svg" xmlns:xlink="http://www.w3.org/1999/xlink" x="0px" y="0px"
	 viewBox="0 0 800 600" style="enable-background:new 0 0 800 600;" xml:space="preserve">
<style type="text/css">
	.st0{fill:#03020D;}
	.st1{fill:url(#SVGID_1_);}
	.st2{fill:url(#SVGID_00000003821511418396707930000016668465375648737926_);}
</style>
<path class="st0" d="M469.6,352V230h22v44.2c7.5-7.1,17.1-11,27.2-11c23.8,0,44.9,18.1,44.9,45.5c0,27.3-21.1,45.5-44.9,45.5
	c-10.7,0-20.8-4.2-28.3-11.9v9.8H469.6z M541.7,308.6c0-15.3-10.9-26-25.1-26c-13.8,0-24.5,10.1-25.1,24.9v1.1
	c0,15.3,10.9,26,25.1,26C530.8,334.6,541.7,323.9,541.7,308.6z M573.9,352V230h22v122H573.9z M626.7,383.6l12.8-30.6l-34.8-87.7
	h23.8l22.2,61.3l22.6-61.3h24.2l-47.3,118.4L626.7,383.6L626.7,383.6z M434.6,265.3v11c-7.6-8.4-18.3-13.1-29.3-13.1
	c-23.8,0-44.9,18.1-44.9,45.5c0,27.4,21.1,45.5,44.9,45.5c11.4,0,22.2-5,30-13.8v11.8h19.2v-86.7H434.6z M432.4,308.6
	c0,15.1-10.9,26-25.1,26c-14.2,0-25.1-10.9-25.1-26c0-15.1,10.9-26,25.1-26c13.8,0,24.5,10.3,25.1,24.9V308.6z"/>
<linearGradient id="SVGID_1_" gradientUnits="userSpaceOnUse" x1="155.1376" y1="179.7239" x2="312.6766" y2="354.6882" gradientTransform="matrix(1 0 0 -1 -20.9449 604.3622)">
	<stop  offset="0" style="stop-color:#FF5416"/>
	<stop  offset="0.2535" style="stop-color:#FF5115"/>
	<stop  offset="0.461" style="stop-color:#FF4712"/>
	<stop  offset="0.6523" style="stop-color:#FF350E"/>
	<stop  offset="0.8327" style="stop-color:#FF1E08"/>
	<stop  offset="1" style="stop-color:#FF0000"/>
</linearGradient>
<path class="st1" d="M214.8,206.2l-94.2,172.4l-18.4-12.9l87.2-159.5H214.8z M216.1,206.2l94.2,172.4l18.4-12.9l-87.2-159.5H216.1z"
	/>
<linearGradient id="SVGID_00000017507863736134404790000004340496714738773133_" gradientUnits="userSpaceOnUse" x1="185.7053" y1="168.4061" x2="278.8153" y2="271.8149" gradientTransform="matrix(1 0 0 -1 -20.9449 604.3622)">
	<stop  offset="0" style="stop-color:#FF5416"/>
	<stop  offset="0.2535" style="stop-color:#FF5115"/>
	<stop  offset="0.461" style="stop-color:#FF4712"/>
	<stop  offset="0.6523" style="stop-color:#FF350E"/>
	<stop  offset="0.8327" style="stop-color:#FF1E08"/>
	<stop  offset="1" style="stop-color:#FF0000"/>
</linearGradient>
<path style="fill:url(#SVGID_00000017507863736134404790000004340496714738773133_);" d="M309,379.6l-93.6-73.3l-93.6,73.3L141,393
	l74.5-58.3l74.5,58.3L309,379.6z"/>
</svg>
