<svg version="1.0" id="katman_1" xmlns="http://www.w3.org/2000/svg" xmlns:xlink="http://www.w3.org/1999/xlink" x="0px" y="0px"
	 viewBox="0 0 600 450" style="enable-background:new 0 0 600 450;" xml:space="preserve">
<style type="text/css">
	.st0{fill-rule:evenodd;clip-rule:evenodd;fill:#0574A2;}
</style>
<g>
	<path class="st0" d="M208.4,229.9h4c-1.6,7.2-7.7,12.1-16,12.1c-9.7,0-17.4-7.2-17.4-16.7c0-9.5,7.8-16.7,17.4-16.7
		c8.2,0,14.4,4.8,16,12.1h-4c-1.4-5.3-5.8-8.6-11.9-8.6c-7.6,0-13.5,5.6-13.5,13.2c0,7.5,5.9,13.2,13.5,13.2
		C202.6,238.6,207.1,235.1,208.4,229.9 M254.2,225.4c0,9.3-7.4,16.7-16.7,16.7s-16.7-7.4-16.7-16.7c0-9.3,7.4-16.7,16.7-16.7
		S254.2,216.1,254.2,225.4 M250.4,225.4c0-7.3-5.7-13.2-12.9-13.2c-7.3,0-12.9,5.9-12.9,13.2c0,7.3,5.7,13.2,12.9,13.2
		S250.4,232.7,250.4,225.4 M293.9,208.7v33.4h-3.1l-20.3-26.3v26.3h-3.7v-33.4h3l20.4,26.7v-26.7H293.9z M312.4,212.3v12.3h17v3.6
		h-17v13.9h-3.9v-33.4h23v3.6H312.4z M366.9,238.5v3.6h-23v-33.4h4v29.8H366.9z M402.4,227.4c0,8.7-5.8,14.6-14.6,14.6
		s-14.6-5.9-14.6-14.6v-18.8h4v18.8c0,6.4,4.2,11,10.6,11c6.4,0,10.6-4.6,10.6-11v-18.8h4V227.4z M420.8,212.3v11.4H438v3.6h-17.2
		v11.2h19.1v3.6h-23v-33.4h23v3.6H420.8z M477.5,208.7v33.4h-3.1l-20.3-26.3v26.3h-3.7v-33.4h3l20.4,26.7v-26.7H477.5z M517.1,212.3
		h-11.7v29.8h-3.7v-29.8H490v-3.6h27.1V212.3z M134,227.4c1.8-0.1,3.7-0.2,5.5-0.3v-1.4c-1.8-0.1-3.7-0.2-5.5-0.3l-5.5-0.2
		c-3.2-0.1-6.4-0.1-9.6-0.1c0-3.2,0-6.4-0.1-9.6l-0.2-5.5c-0.1-1.8-0.1-3.7-0.3-5.5h-1.5c-0.1,1.8-0.2,3.7-0.3,5.5l-0.2,5.5
		c0,1.5-0.1,3-0.1,4.5c-0.6-1.4-1.2-2.8-1.8-4.2l-2.2-5c-0.8-1.6-1.5-3.3-2.4-5l-1.4,0.6c0.6,1.7,1.2,3.4,1.8,5.2l2,5.1
		c0.5,1.4,1.1,2.8,1.7,4.2c-1.1-1.1-2.2-2.1-3.3-3.1l-4-3.8c-1.4-1.2-2.7-2.5-4.1-3.7l-1.1,1.1c1.2,1.4,2.5,2.7,3.7,4.1l3.8,4
		c1,1.1,2.1,2.2,3.1,3.3c-1.4-0.6-2.8-1.1-4.2-1.7l-5.1-2c-1.7-0.6-3.4-1.3-5.2-1.8l-0.6,1.4c1.6,0.8,3.3,1.6,5,2.4l5,2.2
		c1.4,0.6,2.8,1.2,4.2,1.8c-1.5,0-3,0-4.5,0.1l-5.5,0.2c-1.8,0.1-3.7,0.1-5.5,0.3v1.5c1.8,0.1,3.7,0.2,5.5,0.3l5.5,0.2
		c3.2,0.1,6.4,0.1,9.6,0.1c0,3.2,0,6.4,0.1,9.6l0.2,5.5c0.1,1.8,0.2,3.7,0.3,5.5h1.4c0.1-1.8,0.2-3.7,0.3-5.5l0.2-5.5
		c0-1.5,0.1-3.1,0.1-4.6c0.6,1.4,1.2,2.8,1.9,4.3l2.3,5c0.8,1.6,1.5,3.3,2.4,5l1.3-0.5c-0.6-1.7-1.2-3.4-1.8-5.2l-1.9-5.1
		c-0.5-1.4-1.1-2.9-1.7-4.3c1.1,1.1,2.2,2.2,3.3,3.2l4,3.8c1.4,1.2,2.7,2.5,4.1,3.7l1-1c-1.2-1.4-2.4-2.7-3.7-4.1l-3.8-4
		c-1.1-1.1-2.1-2.2-3.2-3.3c1.4,0.6,2.9,1.1,4.3,1.7l5.1,1.9c1.7,0.6,3.4,1.3,5.2,1.8l0.5-1.3c-1.6-0.8-3.3-1.6-5-2.4l-5-2.3
		c-1.4-0.6-2.8-1.2-4.2-1.9c1.5,0,3.1,0,4.6-0.1C128.5,227.6,134,227.4,134,227.4z"/>
	<path class="st0" d="M118.6,260.8c-19.6,0-35.5-15.9-35.5-35.5s15.9-35.5,35.5-35.5s35.5,15.9,35.5,35.5S138.1,260.8,118.6,260.8
		 M118.6,193.2c-17.7,0-32.2,14.4-32.2,32.2s14.4,32.2,32.2,32.2s32.2-14.4,32.2-32.2S136.3,193.2,118.6,193.2"/>
</g>
</svg>
