<svg width="24" height="32" viewBox="0 0 24 32" fill="none" xmlns="http://www.w3.org/2000/svg">
<g clip-path="url(#clip0_502_2)">
<path d="M0.0286026 27.9983C5.32386 33.2935 13.9092 33.2935 19.2044 27.9983C24.4996 22.7031 24.4996 14.1178 19.2044 8.82251L16.8074 11.2195C20.7788 15.1909 20.7788 21.6299 16.8074 25.6013C12.836 29.5727 6.39701 29.5727 2.42555 25.6013L0.0286026 27.9983Z" fill="#00E9A3"/>
<path d="M4.82256 23.2043C7.47017 25.8519 11.7628 25.8519 14.4104 23.2043C17.058 20.5567 17.058 16.264 14.4104 13.6165L12.0135 16.0134C13.3373 17.3372 13.3373 19.4835 12.0135 20.8074C10.6896 22.1312 8.54332 22.1312 7.21953 20.8074L4.82256 23.2043Z" fill="#00E9A3"/>
<path d="M23.9982 4.02854C18.703 -1.26668 10.1177 -1.26668 4.82248 4.02854C-0.472778 9.3238 -0.472778 17.9091 4.82248 23.2043L7.21939 20.8074C3.24804 16.8359 3.24804 10.397 7.21939 6.42556C11.1909 2.4541 17.6298 2.4541 21.6012 6.42556L23.9982 4.02854Z" fill="#00E9A3"/>
<path d="M19.2043 8.82249C16.5567 6.17489 12.264 6.17489 9.61641 8.82249C6.96875 11.4701 6.96875 15.7628 9.61641 18.4104L12.0134 16.0134C10.6896 14.6896 10.6896 12.5433 12.0134 11.2194C13.3372 9.89564 15.4835 9.89564 16.8073 11.2194L19.2043 8.82249Z" fill="#00E9A3"/>
<path d="M23.9982 4.02854C18.703 -1.26668 10.1177 -1.26668 4.82248 4.02854C-0.472778 9.3238 -0.472778 17.9091 4.82248 23.2043L7.21939 20.8074C3.24804 16.8359 3.24804 10.397 7.21939 6.42556C11.1909 2.4541 17.6298 2.4541 21.6012 6.42556L23.9982 4.02854Z" fill="white" fill-opacity="0.8"/>
<path d="M19.2043 8.82249C16.5567 6.17489 12.264 6.17489 9.61641 8.82249C6.96875 11.4701 6.96875 15.7628 9.61641 18.4104L12.0134 16.0134C10.6896 14.6896 10.6896 12.5433 12.0134 11.2194C13.3372 9.89564 15.4835 9.89564 16.8073 11.2194L19.2043 8.82249Z" fill="white" fill-opacity="0.8"/>
</g>
<defs>
<clipPath id="clip0_502_2">
<rect width="24" height="32" fill="white"/>
</clipPath>
</defs>
</svg>
